<?xml version="1.0" encoding="utf-8"?>
<svg viewBox="0 0 100 100" width="100" height="100" xmlns="http://www.w3.org/2000/svg">
  <path d="M 4.39 69.143 C 3.796 69.143 3.24 69.073 2.716 68.935 C 1.288 68.447 0.4 67.473 0.052 66.009 C 0.018 65.905 0 65.749 0 65.539 C 0 65.053 0.104 64.809 0.314 64.809 C 0.488 64.809 0.698 65.121 0.942 65.747 C 1.184 66.723 1.776 67.315 2.716 67.523 C 2.926 67.593 3.188 67.647 3.5 67.681 C 3.814 67.717 4.11 67.735 4.39 67.735 C 5.676 67.735 6.904 67.369 8.07 66.637 C 9.238 65.905 10.318 64.973 11.31 63.843 C 12.302 62.711 13.198 61.543 14 60.343 C 14.8 59.141 15.462 58.053 15.984 57.077 C 17.516 54.153 18.804 51.185 19.848 48.173 C 20.894 45.161 21.904 42.017 22.88 38.745 C 21.87 39.649 20.756 40.327 19.536 40.781 C 18.318 41.233 17.168 41.513 16.09 41.617 L 16.036 41.617 C 15.688 41.617 15.514 41.495 15.514 41.251 C 15.514 40.973 15.724 40.799 16.142 40.729 C 17.152 40.555 18.196 40.129 19.276 39.449 C 20.354 38.771 21.354 37.909 22.278 36.863 C 23.202 35.819 23.906 34.687 24.394 33.469 C 24.464 33.259 24.708 33.095 25.124 32.973 C 25.544 32.849 25.96 32.789 26.378 32.789 C 26.762 32.789 27.102 32.841 27.398 32.947 C 27.694 33.051 27.806 33.225 27.736 33.469 C 27.598 33.853 27.484 34.443 27.398 35.245 C 27.31 36.045 27.232 36.689 27.162 37.177 C 27.058 37.803 27.006 38.709 27.006 39.893 C 27.006 41.391 27.092 43.149 27.266 45.169 C 27.44 47.187 27.728 49.259 28.13 51.383 C 28.528 53.509 29.042 55.493 29.67 57.339 C 30.296 59.185 31.054 60.673 31.942 61.805 C 32.83 62.937 33.866 63.503 35.048 63.503 C 36.268 63.503 37.416 62.911 38.496 61.727 C 39.576 60.543 40.552 58.993 41.422 57.077 C 42.292 55.161 43.042 53.081 43.668 50.835 C 44.294 48.589 44.774 46.397 45.104 44.255 C 45.436 42.113 45.6 40.241 45.6 38.639 C 45.6 37.769 45.548 37.021 45.442 36.395 C 45.304 35.453 45.104 34.643 44.844 33.965 C 44.582 33.285 44.312 32.581 44.034 31.849 L 44.034 31.797 C 44.034 31.657 44.172 31.475 44.45 31.247 C 44.73 31.023 44.94 30.893 45.078 30.857 C 45.6 30.857 46.08 31.101 46.514 31.587 C 46.95 32.075 47.36 32.675 47.742 33.389 C 48.124 34.103 48.508 34.809 48.89 35.505 C 49.274 36.201 49.692 36.759 50.144 37.177 C 50.424 37.421 50.642 37.577 50.798 37.647 C 50.954 37.717 51.206 37.751 51.554 37.751 L 51.868 37.595 C 52.146 37.595 52.338 37.621 52.444 37.673 C 52.548 37.725 52.618 37.891 52.652 38.169 C 52.652 38.447 52.522 38.673 52.26 38.847 C 51.998 39.023 51.73 39.145 51.45 39.215 C 50.998 39.215 50.424 38.979 49.726 38.509 C 49.03 38.039 48.508 37.665 48.16 37.387 C 48.194 37.595 48.212 37.803 48.212 38.011 C 48.212 38.221 48.212 38.431 48.212 38.639 C 48.212 40.555 47.968 42.687 47.482 45.039 C 46.992 47.389 46.322 49.747 45.47 52.115 C 44.616 54.483 43.624 56.659 42.494 58.643 C 41.36 60.629 40.134 62.231 38.81 63.451 C 37.486 64.669 36.112 65.279 34.684 65.279 C 33.012 65.279 31.592 64.773 30.426 63.763 C 29.26 62.755 28.286 61.395 27.502 59.689 C 26.718 57.983 26.1 56.103 25.646 54.049 C 25.194 51.993 24.882 49.895 24.708 47.753 C 24.534 45.611 24.446 43.619 24.446 41.773 C 23.366 44.595 22.296 47.257 21.234 49.765 C 20.172 52.271 18.944 54.797 17.55 57.339 C 16.924 58.487 16.168 59.733 15.28 61.073 C 14.392 62.413 13.39 63.701 12.274 64.939 C 11.162 66.175 9.942 67.185 8.618 67.969 C 7.296 68.751 5.886 69.143 4.39 69.143 Z M 56.062 62.981 C 55.088 62.981 54.234 62.753 53.502 62.301 C 52.284 61.569 51.674 60.247 51.674 58.333 C 51.674 57.531 51.814 56.607 52.092 55.563 C 52.336 54.691 52.772 53.743 53.398 52.717 C 54.024 51.689 54.766 50.705 55.618 49.765 C 56.472 48.825 57.402 48.059 58.412 47.467 C 59.422 46.875 60.432 46.579 61.442 46.579 C 61.86 46.579 62.224 46.631 62.538 46.735 C 62.956 46.875 63.314 47.127 63.61 47.493 C 63.906 47.859 64.054 48.321 64.054 48.877 C 64.054 49.469 63.906 49.799 63.61 49.869 C 63.314 49.939 63.166 49.871 63.166 49.661 C 63.166 49.591 63.174 49.521 63.192 49.453 C 63.21 49.383 63.218 49.329 63.218 49.295 C 63.218 49.017 63.14 48.765 62.984 48.537 C 62.826 48.311 62.54 48.197 62.12 48.197 C 61.564 48.197 60.876 48.493 60.058 49.087 C 59.24 49.679 58.404 50.471 57.55 51.463 C 56.696 52.455 55.948 53.543 55.304 54.727 C 54.66 55.911 54.234 57.095 54.024 58.279 C 53.99 58.453 53.964 58.619 53.946 58.775 C 53.928 58.933 53.92 59.097 53.92 59.271 C 53.92 60.071 54.102 60.741 54.468 61.281 C 54.834 61.821 55.418 62.091 56.22 62.091 C 57.194 62.091 58.134 61.717 59.04 60.971 C 59.946 60.221 60.754 59.325 61.468 58.279 C 62.182 57.235 62.712 56.311 63.06 55.509 C 63.34 54.883 63.532 54.345 63.636 53.893 C 63.74 53.439 63.794 53.055 63.794 52.743 C 63.794 52.465 63.766 52.221 63.714 52.011 C 63.662 51.803 63.6 51.629 63.532 51.489 C 63.462 51.279 63.426 51.123 63.426 51.019 C 63.426 50.741 63.54 50.513 63.766 50.339 C 63.992 50.165 64.228 50.079 64.472 50.079 C 64.68 50.079 64.906 50.147 65.15 50.287 C 65.43 50.357 65.812 50.409 66.3 50.445 C 66.786 50.479 67.31 50.497 67.866 50.497 C 68.46 50.497 69.06 50.479 69.668 50.445 C 70.278 50.409 70.81 50.339 71.262 50.235 C 71.332 50.201 71.436 50.183 71.576 50.183 C 71.818 50.183 71.94 50.253 71.94 50.391 C 71.94 50.531 71.818 50.653 71.576 50.759 C 70.356 51.315 69.268 51.609 68.31 51.645 C 67.354 51.681 66.526 51.697 65.83 51.697 C 65.898 52.569 65.708 53.499 65.254 54.491 C 64.802 55.485 64.332 56.365 63.844 57.129 C 63.252 58.001 62.574 58.889 61.808 59.793 C 61.042 60.699 60.188 61.457 59.248 62.065 C 58.308 62.675 57.246 62.981 56.062 62.981 Z M 72.668 62.927 C 72.042 62.927 71.478 62.789 70.972 62.511 C 70.468 62.231 70.092 61.709 69.848 60.943 C 69.814 60.839 69.788 60.733 69.77 60.629 C 69.752 60.525 69.744 60.403 69.744 60.263 C 69.744 59.567 69.9 58.697 70.216 57.651 C 70.528 56.607 70.91 55.597 71.364 54.623 C 71.154 54.901 70.91 55.241 70.632 55.641 C 70.354 56.043 69.954 56.555 69.432 57.183 C 69.292 57.321 69.134 57.391 68.96 57.391 C 68.716 57.391 68.596 57.251 68.596 56.973 C 68.596 56.765 68.664 56.591 68.804 56.451 C 69.71 55.301 70.52 54.275 71.234 53.369 C 71.948 52.465 72.478 51.697 72.826 51.071 C 72.826 51.001 72.93 50.783 73.138 50.419 C 73.348 50.053 73.626 49.539 73.974 48.877 C 73.696 48.913 73.462 48.939 73.27 48.957 C 73.078 48.973 72.914 48.981 72.774 48.981 C 72.53 48.981 72.32 48.877 72.146 48.669 C 71.972 48.459 71.954 48.199 72.094 47.885 C 72.268 47.397 72.652 47.119 73.244 47.049 C 73.836 46.979 74.358 46.927 74.81 46.891 C 74.846 46.823 74.916 46.789 75.02 46.789 C 75.438 46.021 75.838 45.273 76.222 44.541 C 76.604 43.811 76.926 43.201 77.188 42.713 C 77.448 42.225 77.578 41.965 77.578 41.929 C 78.274 40.815 78.728 40.077 78.936 39.711 C 79.146 39.345 79.424 39.127 79.772 39.057 C 80.156 39.023 80.566 39.041 81 39.109 C 81.436 39.179 81.724 39.335 81.862 39.579 C 81.966 39.719 82.018 39.893 82.018 40.101 C 82.018 40.415 81.948 40.721 81.81 41.017 C 81.67 41.311 81.532 41.547 81.392 41.721 C 81.254 41.965 81.07 42.131 80.844 42.217 C 80.618 42.305 80.416 42.523 80.242 42.871 C 79.894 43.533 79.512 44.247 79.094 45.013 C 78.676 45.777 78.242 46.509 77.788 47.205 L 78.414 47.153 C 79.25 47.083 80.042 46.997 80.792 46.891 C 81.54 46.787 82.402 46.753 83.376 46.789 C 83.55 46.789 83.734 46.815 83.926 46.867 C 84.116 46.919 84.212 46.997 84.212 47.101 C 84.212 47.241 83.76 47.431 82.854 47.675 C 82.506 47.815 81.748 47.963 80.582 48.121 C 79.416 48.277 78.224 48.425 77.006 48.563 C 76.658 49.225 76.344 49.773 76.064 50.209 C 75.786 50.645 75.594 50.967 75.49 51.175 C 74.724 52.777 74.036 54.231 73.426 55.537 C 72.818 56.843 72.478 57.913 72.408 58.749 C 72.372 58.889 72.356 59.019 72.356 59.141 C 72.356 59.263 72.356 59.393 72.356 59.533 C 72.356 60.925 72.808 61.621 73.714 61.621 C 74.27 61.621 74.984 61.317 75.856 60.709 C 76.726 60.099 77.614 59.349 78.52 58.461 C 79.426 57.573 80.252 56.721 81 55.903 C 81.748 55.085 82.262 54.467 82.54 54.049 C 82.646 53.945 82.75 53.893 82.854 53.893 C 82.994 53.893 83.106 53.945 83.194 54.049 C 83.28 54.153 83.29 54.291 83.22 54.465 C 82.908 55.057 82.376 55.799 81.628 56.687 C 80.878 57.575 80.042 58.463 79.12 59.351 C 78.198 60.239 77.3 60.995 76.43 61.621 C 75.976 61.971 75.41 62.275 74.732 62.537 C 74.052 62.797 73.366 62.927 72.668 62.927 Z M 86.68 63.189 C 85.114 63.189 83.756 62.823 82.608 62.091 C 81.458 61.361 80.884 60.245 80.884 58.749 C 80.884 57.949 81.128 56.973 81.616 55.823 C 81.964 55.023 82.608 54.101 83.546 53.057 C 84.488 52.011 85.584 50.993 86.838 50.001 C 88.092 49.007 89.364 48.189 90.65 47.545 C 91.94 46.901 93.106 46.579 94.152 46.579 C 94.534 46.579 94.882 46.631 95.196 46.735 C 95.788 46.945 96.196 47.275 96.422 47.727 C 96.65 48.181 96.762 48.651 96.762 49.139 C 96.762 49.591 96.694 50.027 96.554 50.445 C 96.414 50.861 96.24 51.227 96.032 51.541 C 95.404 52.481 94.508 53.317 93.342 54.049 C 92.176 54.779 90.992 55.353 89.79 55.771 C 88.588 56.189 87.604 56.433 86.838 56.503 L 86.734 56.503 C 86.282 56.503 86.056 56.365 86.056 56.085 C 86.056 55.911 86.194 55.823 86.472 55.823 C 87.308 55.755 88.362 55.363 89.632 54.649 C 90.904 53.935 92.026 53.195 93.002 52.429 C 93.42 52.081 93.916 51.593 94.492 50.967 C 95.064 50.339 95.352 49.729 95.352 49.139 C 95.352 48.511 95.056 48.197 94.466 48.197 C 94.15 48.197 93.828 48.267 93.498 48.407 C 93.166 48.547 92.896 48.651 92.688 48.719 C 91.678 49.209 90.564 49.967 89.344 50.993 C 88.126 52.021 87.02 53.169 86.028 54.441 C 85.036 55.711 84.35 56.991 83.966 58.279 C 83.86 58.557 83.79 58.827 83.758 59.089 C 83.722 59.349 83.704 59.603 83.704 59.847 C 83.704 60.681 83.974 61.273 84.514 61.621 C 85.054 61.971 85.706 62.145 86.472 62.145 C 87.622 62.145 88.806 61.891 90.026 61.387 C 91.244 60.883 92.428 60.229 93.576 59.427 C 94.724 58.627 95.778 57.765 96.736 56.843 C 97.694 55.921 98.504 55.023 99.166 54.153 C 99.27 54.013 99.392 53.935 99.53 53.919 C 99.67 53.901 99.756 53.927 99.792 53.995 C 99.93 54.031 100 54.127 100 54.283 C 100 54.439 99.966 54.587 99.896 54.727 C 98.922 56.085 97.746 57.409 96.37 58.697 C 94.994 59.985 93.48 61.057 91.828 61.909 C 90.172 62.763 88.456 63.189 86.68 63.189 Z" style="white-space: pre;"/>
</svg>